<svg xmlns="http://www.w3.org/2000/svg" xmlns:xlink="http://www.w3.org/1999/xlink" width="1920" zoomAndPan="magnify" viewBox="0 0 1440 809.999993" height="1080" preserveAspectRatio="xMidYMid meet" version="1.0"><defs><clipPath id="9f07040a75"><path d="M 0.5 0.5 L 447.5 0.5 L 447.5 447.5 L 0.5 447.5 Z M 0.5 0.5 " clip-rule="nonzero"/></clipPath><clipPath id="19af94b332"><rect x="0" width="448" y="0" height="448"/></clipPath></defs><g transform="matrix(1, 0, 0, 1, 496, 181)"><g clip-path="url(#19af94b332)"><g clip-path="url(#9f07040a75)"><path fill="#ffffff" d="M 0.5 0.5 L 447.5 0.5 L 447.5 447.5 L 0.5 447.5 Z M 0.5 0.5 " fill-opacity="1" fill-rule="nonzero"/></g><path stroke-linecap="butt" transform="matrix(12.08108, 0, 0, 12.08108, 0.499981, 0.500011)" fill-opacity="1" fill="#ffffff" fill-rule="nonzero" stroke-linejoin="miter" d="M 2.000159 2.500034 L 9.000063 2.500034 M 10.999897 2.500034 L 11.999976 2.500034 M 14.000134 2.500034 L 14.999889 2.500034 M 15.999968 2.500034 L 18.000125 2.500034 M 19.999959 2.500034 L 22.000117 2.500034 M 25.000029 2.500034 L 26.000108 2.500034 M 27.999942 2.500034 L 34.999847 2.500034 M 2.000159 3.500113 L 2.999914 3.500113 M 7.999985 3.500113 L 9.000063 3.500113 M 14.000134 3.500113 L 14.999889 3.500113 M 17.000046 3.500113 L 18.99988 3.500113 M 19.999959 3.500113 L 21.000038 3.500113 M 26.000108 3.500113 L 26.999864 3.500113 M 27.999942 3.500113 L 29.000021 3.500113 M 34.000091 3.500113 L 34.999847 3.500113 M 2.000159 4.499868 L 2.999914 4.499868 M 3.999993 4.499868 L 6.999906 4.499868 M 7.999985 4.499868 L 9.000063 4.499868 M 10.000142 4.499868 L 10.999897 4.499868 M 11.999976 4.499868 L 13.000055 4.499868 M 14.000134 4.499868 L 14.999889 4.499868 M 15.999968 4.499868 L 17.000046 4.499868 M 18.000125 4.499868 L 18.99988 4.499868 M 22.000117 4.499868 L 23.999951 4.499868 M 25.000029 4.499868 L 26.000108 4.499868 M 27.999942 4.499868 L 29.000021 4.499868 M 30.0001 4.499868 L 33.000013 4.499868 M 34.000091 4.499868 L 34.999847 4.499868 M 2.000159 5.499947 L 2.999914 5.499947 M 3.999993 5.499947 L 6.999906 5.499947 M 7.999985 5.499947 L 9.000063 5.499947 M 10.000142 5.499947 L 10.999897 5.499947 M 11.999976 5.499947 L 14.999889 5.499947 M 19.999959 5.499947 L 21.000038 5.499947 M 23.999951 5.499947 L 26.999864 5.499947 M 27.999942 5.499947 L 29.000021 5.499947 M 30.0001 5.499947 L 33.000013 5.499947 M 34.000091 5.499947 L 34.999847 5.499947 M 2.000159 6.500026 L 2.999914 6.500026 M 3.999993 6.500026 L 6.999906 6.500026 M 7.999985 6.500026 L 9.000063 6.500026 M 10.000142 6.500026 L 10.999897 6.500026 M 13.000055 6.500026 L 14.000134 6.500026 M 15.999968 6.500026 L 19.999959 6.500026 M 22.000117 6.500026 L 22.999872 6.500026 M 27.999942 6.500026 L 29.000021 6.500026 M 30.0001 6.500026 L 33.000013 6.500026 M 34.000091 6.500026 L 34.999847 6.500026 M 2.000159 7.500104 L 2.999914 7.500104 M 7.999985 7.500104 L 9.000063 7.500104 M 10.000142 7.500104 L 10.999897 7.500104 M 11.999976 7.500104 L 14.000134 7.500104 M 21.000038 7.500104 L 22.000117 7.500104 M 22.999872 7.500104 L 23.999951 7.500104 M 25.000029 7.500104 L 26.999864 7.500104 M 27.999942 7.500104 L 29.000021 7.500104 M 34.000091 7.500104 L 34.999847 7.500104 M 2.000159 8.49986 L 9.000063 8.49986 M 10.000142 8.49986 L 10.999897 8.49986 M 11.999976 8.49986 L 13.000055 8.49986 M 14.000134 8.49986 L 14.999889 8.49986 M 15.999968 8.49986 L 17.000046 8.49986 M 18.000125 8.49986 L 18.99988 8.49986 M 19.999959 8.49986 L 21.000038 8.49986 M 22.000117 8.49986 L 22.999872 8.49986 M 23.999951 8.49986 L 25.000029 8.49986 M 26.000108 8.49986 L 26.999864 8.49986 M 27.999942 8.49986 L 34.999847 8.49986 M 10.000142 9.499939 L 10.999897 9.499939 M 11.999976 9.499939 L 14.999889 9.499939 M 18.000125 9.499939 L 18.99988 9.499939 M 21.000038 9.499939 L 25.000029 9.499939 M 26.000108 9.499939 L 26.999864 9.499939 M 2.000159 10.500017 L 2.999914 10.500017 M 3.999993 10.500017 L 9.000063 10.500017 M 11.999976 10.500017 L 13.000055 10.500017 M 14.999889 10.500017 L 15.999968 10.500017 M 18.99988 10.500017 L 19.999959 10.500017 M 21.000038 10.500017 L 22.000117 10.500017 M 23.999951 10.500017 L 25.000029 10.500017 M 26.000108 10.500017 L 26.999864 10.500017 M 27.999942 10.500017 L 33.000013 10.500017 M 2.000159 11.500096 L 5.000072 11.500096 M 6.000151 11.500096 L 7.999985 11.500096 M 9.000063 11.500096 L 10.000142 11.500096 M 11.999976 11.500096 L 13.000055 11.500096 M 14.999889 11.500096 L 15.999968 11.500096 M 18.99988 11.500096 L 19.999959 11.500096 M 21.000038 11.500096 L 22.999872 11.500096 M 25.000029 11.500096 L 26.999864 11.500096 M 27.999942 11.500096 L 30.0001 11.500096 M 30.999855 11.500096 L 34.000091 11.500096 M 2.999914 12.499851 L 3.999993 12.499851 M 6.000151 12.499851 L 6.999906 12.499851 M 7.999985 12.499851 L 10.000142 12.499851 M 10.999897 12.499851 L 11.999976 12.499851 M 14.999889 12.499851 L 18.000125 12.499851 M 18.99988 12.499851 L 19.999959 12.499851 M 22.000117 12.499851 L 22.999872 12.499851 M 26.000108 12.499851 L 26.999864 12.499851 M 27.999942 12.499851 L 29.000021 12.499851 M 30.0001 12.499851 L 30.999855 12.499851 M 31.999934 12.499851 L 34.999847 12.499851 M 5.000072 13.49993 L 6.000151 13.49993 M 10.000142 13.49993 L 10.999897 13.49993 M 14.000134 13.49993 L 15.999968 13.49993 M 17.000046 13.49993 L 21.000038 13.49993 M 22.000117 13.49993 L 22.999872 13.49993 M 26.000108 13.49993 L 29.000021 13.49993 M 30.0001 13.49993 L 33.000013 13.49993 M 34.000091 13.49993 L 34.999847 13.49993 M 2.999914 14.500009 L 3.999993 14.500009 M 7.999985 14.500009 L 10.999897 14.500009 M 11.999976 14.500009 L 14.000134 14.500009 M 15.999968 14.500009 L 18.99988 14.500009 M 22.000117 14.500009 L 23.999951 14.500009 M 25.000029 14.500009 L 27.999942 14.500009 M 30.0001 14.500009 L 31.999934 14.500009 M 33.000013 14.500009 L 34.999847 14.500009 M 6.000151 15.500088 L 6.999906 15.500088 M 9.000063 15.500088 L 10.000142 15.500088 M 13.000055 15.500088 L 14.000134 15.500088 M 14.999889 15.500088 L 15.999968 15.500088 M 17.000046 15.500088 L 18.000125 15.500088 M 19.999959 15.500088 L 21.000038 15.500088 M 23.999951 15.500088 L 25.000029 15.500088 M 26.000108 15.500088 L 26.999864 15.500088 M 27.999942 15.500088 L 29.000021 15.500088 M 31.999934 15.500088 L 34.999847 15.500088 M 5.000072 16.499843 L 6.000151 16.499843 M 6.999906 16.499843 L 9.000063 16.499843 M 10.999897 16.499843 L 13.000055 16.499843 M 14.999889 16.499843 L 15.999968 16.499843 M 17.000046 16.499843 L 18.99988 16.499843 M 22.000117 16.499843 L 22.999872 16.499843 M 23.999951 16.499843 L 29.000021 16.499843 M 30.0001 16.499843 L 34.000091 16.499843 M 2.000159 17.499922 L 2.999914 17.499922 M 3.999993 17.499922 L 7.999985 17.499922 M 10.999897 17.499922 L 11.999976 17.499922 M 13.000055 17.499922 L 14.000134 17.499922 M 15.999968 17.499922 L 18.000125 17.499922 M 22.999872 17.499922 L 25.000029 17.499922 M 26.000108 17.499922 L 30.999855 17.499922 M 31.999934 17.499922 L 33.000013 17.499922 M 2.999914 18.5 L 3.999993 18.5 M 7.999985 18.5 L 10.999897 18.5 M 11.999976 18.5 L 14.000134 18.5 M 15.999968 18.5 L 18.000125 18.5 M 18.99988 18.5 L 19.999959 18.5 M 25.000029 18.5 L 27.999942 18.5 M 29.000021 18.5 L 30.999855 18.5 M 34.000091 18.5 L 34.999847 18.5 M 2.000159 19.500079 L 2.999914 19.500079 M 3.999993 19.500079 L 5.000072 19.500079 M 14.999889 19.500079 L 15.999968 19.500079 M 18.000125 19.500079 L 18.99988 19.500079 M 21.000038 19.500079 L 22.999872 19.500079 M 25.000029 19.500079 L 26.000108 19.500079 M 27.999942 19.500079 L 30.0001 19.500079 M 30.999855 19.500079 L 33.000013 19.500079 M 34.000091 19.500079 L 34.999847 19.500079 M 2.000159 20.500158 L 2.999914 20.500158 M 5.000072 20.500158 L 6.000151 20.500158 M 6.999906 20.500158 L 9.000063 20.500158 M 13.000055 20.500158 L 14.000134 20.500158 M 15.999968 20.500158 L 18.99988 20.500158 M 19.999959 20.500158 L 21.000038 20.500158 M 29.000021 20.500158 L 30.999855 20.500158 M 31.999934 20.500158 L 34.000091 20.500158 M 2.999914 21.499913 L 3.999993 21.499913 M 5.000072 21.499913 L 6.000151 21.499913 M 6.999906 21.499913 L 7.999985 21.499913 M 10.000142 21.499913 L 11.999976 21.499913 M 14.000134 21.499913 L 14.999889 21.499913 M 15.999968 21.499913 L 18.000125 21.499913 M 21.000038 21.499913 L 22.000117 21.499913 M 22.999872 21.499913 L 23.999951 21.499913 M 25.000029 21.499913 L 34.999847 21.499913 M 2.999914 22.499992 L 3.999993 22.499992 M 5.000072 22.499992 L 6.000151 22.499992 M 6.999906 22.499992 L 9.000063 22.499992 M 14.000134 22.499992 L 15.999968 22.499992 M 17.000046 22.499992 L 18.000125 22.499992 M 19.999959 22.499992 L 21.000038 22.499992 M 22.999872 22.499992 L 23.999951 22.499992 M 26.000108 22.499992 L 27.999942 22.499992 M 30.999855 22.499992 L 31.999934 22.499992 M 33.000013 22.499992 L 34.000091 22.499992 M 2.000159 23.500071 L 3.999993 23.500071 M 6.000151 23.500071 L 6.999906 23.500071 M 9.000063 23.500071 L 10.000142 23.500071 M 10.999897 23.500071 L 11.999976 23.500071 M 13.000055 23.500071 L 14.000134 23.500071 M 14.999889 23.500071 L 15.999968 23.500071 M 17.000046 23.500071 L 18.99988 23.500071 M 22.000117 23.500071 L 22.999872 23.500071 M 25.000029 23.500071 L 26.000108 23.500071 M 26.999864 23.500071 L 30.0001 23.500071 M 31.999934 23.500071 L 33.000013 23.500071 M 34.000091 23.500071 L 34.999847 23.500071 M 2.000159 24.500149 L 2.999914 24.500149 M 3.999993 24.500149 L 5.000072 24.500149 M 6.000151 24.500149 L 11.999976 24.500149 M 13.000055 24.500149 L 14.999889 24.500149 M 19.999959 24.500149 L 22.000117 24.500149 M 23.999951 24.500149 L 26.000108 24.500149 M 27.999942 24.500149 L 29.000021 24.500149 M 30.0001 24.500149 L 30.999855 24.500149 M 31.999934 24.500149 L 34.000091 24.500149 M 2.000159 25.499905 L 2.999914 25.499905 M 3.999993 25.499905 L 6.000151 25.499905 M 6.999906 25.499905 L 7.999985 25.499905 M 10.000142 25.499905 L 10.999897 25.499905 M 15.999968 25.499905 L 17.000046 25.499905 M 18.000125 25.499905 L 18.99988 25.499905 M 19.999959 25.499905 L 25.000029 25.499905 M 26.000108 25.499905 L 27.999942 25.499905 M 29.000021 25.499905 L 30.999855 25.499905 M 31.999934 25.499905 L 34.000091 25.499905 M 2.000159 26.499983 L 2.999914 26.499983 M 3.999993 26.499983 L 6.999906 26.499983 M 7.999985 26.499983 L 10.000142 26.499983 M 11.999976 26.499983 L 13.000055 26.499983 M 18.99988 26.499983 L 19.999959 26.499983 M 21.000038 26.499983 L 22.000117 26.499983 M 23.999951 26.499983 L 25.000029 26.499983 M 26.000108 26.499983 L 31.999934 26.499983 M 33.000013 26.499983 L 34.999847 26.499983 M 10.000142 27.500062 L 13.000055 27.500062 M 14.000134 27.500062 L 17.000046 27.500062 M 18.000125 27.500062 L 22.999872 27.500062 M 26.000108 27.500062 L 26.999864 27.500062 M 30.0001 27.500062 L 30.999855 27.500062 M 31.999934 27.500062 L 34.000091 27.500062 M 2.000159 28.500141 L 9.000063 28.500141 M 11.999976 28.500141 L 14.000134 28.500141 M 17.000046 28.500141 L 19.999959 28.500141 M 22.000117 28.500141 L 22.999872 28.500141 M 23.999951 28.500141 L 26.999864 28.500141 M 27.999942 28.500141 L 29.000021 28.500141 M 30.0001 28.500141 L 30.999855 28.500141 M 31.999934 28.500141 L 33.000013 28.500141 M 34.000091 28.500141 L 34.999847 28.500141 M 2.000159 29.499896 L 2.999914 29.499896 M 7.999985 29.499896 L 9.000063 29.499896 M 10.000142 29.499896 L 10.999897 29.499896 M 14.000134 29.499896 L 17.000046 29.499896 M 18.000125 29.499896 L 21.000038 29.499896 M 22.000117 29.499896 L 22.999872 29.499896 M 25.000029 29.499896 L 26.999864 29.499896 M 30.0001 29.499896 L 33.000013 29.499896 M 2.000159 30.499975 L 2.999914 30.499975 M 3.999993 30.499975 L 6.999906 30.499975 M 7.999985 30.499975 L 9.000063 30.499975 M 10.000142 30.499975 L 10.999897 30.499975 M 11.999976 30.499975 L 17.000046 30.499975 M 18.000125 30.499975 L 18.99988 30.499975 M 21.000038 30.499975 L 25.000029 30.499975 M 26.000108 30.499975 L 31.999934 30.499975 M 2.000159 31.500054 L 2.999914 31.500054 M 3.999993 31.500054 L 6.999906 31.500054 M 7.999985 31.500054 L 9.000063 31.500054 M 10.000142 31.500054 L 11.999976 31.500054 M 14.999889 31.500054 L 15.999968 31.500054 M 17.000046 31.500054 L 18.000125 31.500054 M 18.99988 31.500054 L 21.000038 31.500054 M 22.999872 31.500054 L 23.999951 31.500054 M 26.000108 31.500054 L 27.999942 31.500054 M 30.0001 31.500054 L 30.999855 31.500054 M 33.000013 31.500054 L 34.000091 31.500054 M 2.000159 32.500132 L 2.999914 32.500132 M 3.999993 32.500132 L 6.999906 32.500132 M 7.999985 32.500132 L 9.000063 32.500132 M 10.000142 32.500132 L 10.999897 32.500132 M 17.000046 32.500132 L 18.99988 32.500132 M 22.000117 32.500132 L 30.0001 32.500132 M 30.999855 32.500132 L 33.000013 32.500132 M 2.000159 33.499888 L 2.999914 33.499888 M 7.999985 33.499888 L 9.000063 33.499888 M 10.999897 33.499888 L 11.999976 33.499888 M 13.000055 33.499888 L 14.000134 33.499888 M 17.000046 33.499888 L 18.000125 33.499888 M 19.999959 33.499888 L 21.000038 33.499888 M 22.999872 33.499888 L 26.999864 33.499888 M 27.999942 33.499888 L 29.000021 33.499888 M 30.0001 33.499888 L 31.999934 33.499888 M 2.000159 34.499966 L 9.000063 34.499966 M 10.000142 34.499966 L 10.999897 34.499966 M 11.999976 34.499966 L 15.999968 34.499966 M 17.000046 34.499966 L 18.000125 34.499966 M 18.99988 34.499966 L 19.999959 34.499966 M 23.999951 34.499966 L 25.000029 34.499966 M 26.999864 34.499966 L 30.0001 34.499966 M 30.999855 34.499966 L 31.999934 34.499966 M 33.000013 34.499966 L 34.000091 34.499966 " stroke="#000000" stroke-width="1" stroke-opacity="1" stroke-miterlimit="4"/></g></g></svg>